<svg xmlns="http://www.w3.org/2000/svg" viewBox="0 0 980 230" role="img" aria-labelledby="title desc">
  <title id="title">Shared Customer Insights</title>
  <desc id="desc">Customer signals are collected, interpreted, and shared across teams to guide digital offerings.</desc>
  <rect width="980" height="230" rx="22" fill="#f8fafc"/>
  <rect x="1" y="1" width="978" height="228" rx="21" fill="none" stroke="#bfdbfe"/>
  <g font-family="Inter, ui-sans-serif, system-ui, -apple-system, BlinkMacSystemFont, 'Segoe UI', sans-serif">
    <text x="42" y="42" fill="#0f172a" font-size="24" font-weight="850">Shared Customer Insights</text>
    <text x="42" y="72" fill="#475569" font-size="16">Kundeinnsikt samles, tolkes og deles på tvers av organisasjonen.</text>

    <g transform="translate(70 104)">
      <circle cx="58" cy="46" r="42" fill="#dbeafe" stroke="#2563eb" stroke-width="4"/>
      <circle cx="44" cy="38" r="8" fill="#0f172a"/>
      <circle cx="72" cy="38" r="8" fill="#0f172a"/>
      <path d="M38 60c12 16 28 16 40 0" fill="none" stroke="#0f172a" stroke-width="4" stroke-linecap="round"/>
      <text x="58" y="118" text-anchor="middle" fill="#0f172a" font-size="16" font-weight="800">Customer</text>
    </g>

    <path d="M182 150h92" fill="none" stroke="#94a3b8" stroke-width="4" stroke-linecap="round" stroke-dasharray="7 8"/>
    <path d="M274 150l-14-10v20Z" fill="#94a3b8"/>

    <g transform="translate(310 96)">
      <rect x="0" y="0" width="220" height="112" rx="22" fill="#eff6ff" stroke="#3b82f6" stroke-width="4"/>
      <path d="M42 78V44M88 78V28M134 78V58M180 78V36" stroke="#2563eb" stroke-width="10" stroke-linecap="round"/>
      <path d="M36 84h150" stroke="#93c5fd" stroke-width="4" stroke-linecap="round"/>
      <text x="110" y="134" text-anchor="middle" fill="#0f172a" font-size="16" font-weight="800">Shared insight base</text>
    </g>

    <path d="M548 150h90" fill="none" stroke="#94a3b8" stroke-width="4" stroke-linecap="round" stroke-dasharray="7 8"/>
    <path d="M638 150l-14-10v20Z" fill="#94a3b8"/>

    <g transform="translate(674 96)">
      <rect x="0" y="0" width="210" height="112" rx="22" fill="#ffffff" stroke="#cbd5e1" stroke-width="3"/>
      <circle cx="50" cy="46" r="20" fill="#dbeafe" stroke="#2563eb" stroke-width="3"/>
      <circle cx="106" cy="46" r="20" fill="#e0f2fe" stroke="#0284c7" stroke-width="3"/>
      <circle cx="162" cy="46" r="20" fill="#ecfeff" stroke="#0891b2" stroke-width="3"/>
      <path d="M50 72v18M106 72v18M162 72v18M50 90h112" fill="none" stroke="#94a3b8" stroke-width="4" stroke-linecap="round"/>
      <text x="105" y="134" text-anchor="middle" fill="#0f172a" font-size="16" font-weight="800">Teams act on insight</text>
    </g>
  </g>
</svg>
