<svg xmlns="http://www.w3.org/2000/svg" viewBox="0 0 980 190" role="img" aria-labelledby="title desc">
  <title id="title">Operational Backbone in practice</title>
  <desc id="desc">Four capability areas: secure and stable operations, modern operations platforms, high availability, and standardization.</desc>
  <rect width="980" height="190" rx="20" fill="#f8fafc"/>
  <rect x="1" y="1" width="978" height="188" rx="19" fill="none" stroke="#99f6e4"/>
  <g font-family="Inter, ui-sans-serif, system-ui, -apple-system, BlinkMacSystemFont, 'Segoe UI', sans-serif">
    <text x="42" y="38" fill="#0f172a" font-size="21" font-weight="800">Operational Backbone i praksis</text>
    <g transform="translate(52 74)">
      <path d="M35 0 70 14v27c0 30-20 50-35 57C20 91 0 71 0 41V14L35 0Z" fill="#ecfeff" stroke="#06b6d4" stroke-width="5"/>
      <path d="M22 45 32 55 51 32" fill="none" stroke="#14b8a6" stroke-width="7" stroke-linecap="round" stroke-linejoin="round"/>
      <text x="94" y="20" fill="#0f172a" font-size="17" font-weight="800">Stabil og sikker drift</text>
      <text x="94" y="46" fill="#334155" font-size="15">Sikkerhet og</text>
      <text x="94" y="68" fill="#334155" font-size="15">motstandsdyktighet</text>
    </g>
    <line x1="285" y1="66" x2="285" y2="156" stroke="#cbd5e1"/>
    <g transform="translate(330 82)">
      <path d="M22 58h100a27 27 0 0 0 0-54c-7 0-14 2-20 6A42 42 0 0 0 22 22a18 18 0 0 0 0 36Z" fill="#ecfeff" stroke="#06b6d4" stroke-width="5" stroke-linejoin="round"/>
      <text x="158" y="12" fill="#0f172a" font-size="17" font-weight="800">Moderne driftsplattformer</text>
      <text x="158" y="38" fill="#334155" font-size="15">Serverløst, containerisert</text>
      <text x="158" y="60" fill="#334155" font-size="15">og skybasert</text>
    </g>
    <line x1="564" y1="66" x2="564" y2="156" stroke="#cbd5e1"/>
    <g transform="translate(605 76)">
      <path d="M14 76a64 64 0 1 1 102 0" fill="none" stroke="#06b6d4" stroke-width="5" stroke-linecap="round"/>
      <path d="M65 76 93 40" stroke="#14b8a6" stroke-width="6" stroke-linecap="round"/>
      <circle cx="65" cy="76" r="7" fill="#ef4444"/>
      <path d="M65 12v14M25 28l10 10M105 28 95 38M20 76h15M110 76H95" stroke="#06b6d4" stroke-width="4" stroke-linecap="round"/>
      <text x="148" y="18" fill="#0f172a" font-size="17" font-weight="800">Høy tilgjengelighet</text>
      <text x="148" y="44" fill="#334155" font-size="15">God ytelse og</text>
      <text x="148" y="66" fill="#334155" font-size="15">gradvis levering</text>
    </g>
    <line x1="770" y1="66" x2="770" y2="156" stroke="#cbd5e1"/>
    <g transform="translate(808 74)">
      <g fill="none" stroke="#06b6d4" stroke-width="5" stroke-linecap="round">
        <path d="M18 0v90M50 0v90M82 0v90"/>
        <path d="M6 23h24M38 52h24M70 30h24"/>
      </g>
      <text x="120" y="19" fill="#0f172a" font-size="17" font-weight="800">Standardisering</text>
      <text x="120" y="45" fill="#334155" font-size="15">Felles standarder og</text>
      <text x="120" y="67" fill="#334155" font-size="15">beste praksis</text>
    </g>
  </g>
</svg>
